<?xml version="1.0" encoding="utf-8"?>
<!-- Generator: Adobe Illustrator 28.2.0, SVG Export Plug-In . SVG Version: 6.00 Build 0)  -->
<svg version="1.1" id="Layer_1" xmlns="http://www.w3.org/2000/svg" xmlns:xlink="http://www.w3.org/1999/xlink" x="0px" y="0px"
	 viewBox="0 0 226.8 226.8" style="enable-background:new 0 0 226.8 226.8;" xml:space="preserve">
	 <style>
    path {
      fill: #303030;
    }
    @media (prefers-color-scheme: dark) {
      path {
        fill: #fff;
      }
    }
  </style>
<path d="M13.2,142.2c-4.3-1.9-6.5-3.3-6.5-11.9c0-7.8,2.8-12.7,6.1-12.6c2.9,0.1,3.7,2.2,6.6,8.2c3.2,6.6,9.9,11.7,20.9,11.7
	c11.2,0,15.5-4.7,15.5-9c0-4.3-3.9-6.4-18.1-8.2c-20.3-2.6-29.1-7.3-29.1-19.8c0-13.4,14.1-22.1,29.8-22.1c13,0,15.6,4.3,23.2,4.9
	c5.3,0.4,4,3.9,3.1,12.5c-0.5,5.1-1.4,7.9-4.5,8c-2.9,0.1-3.4-1.9-5.5-6.7c-2.8-6.6-7.4-10.4-17.2-10.4c-8.7,0-14.9,4.3-14.9,9.3
	c0,4,4.6,6,21.1,8c16.2,2,25.6,8.5,25.6,20.4c0,15.4-17.1,22.3-32.5,22.3C25.8,146.8,17.8,144.2,13.2,142.2z"/>
<path d="M84.3,121.1c1.2-19.2-5.2-12.2-7.7-16.4c-1.2-2-0.3-3.9,1.6-5.3c2.1-1.6,5.7-3.2,9.2-6.2c4.4-3.7,6.9-8.5,10.4-6.7
	c2.6,1.3,2.1,4.4,1.3,8.5c-0.2,1.1-0.4,2.3-0.6,3.6l19.4-0.5c2.9-0.1,3.6,1.3,2.6,3.4c-2.5,4.9-3.4,7.8-10.9,7.3l-12-0.9
	c-0.2,2.5-0.4,4.8-0.4,6.4c-0.3,12.7,4.4,20.6,11,20.6c5.1,0,7.5-1.6,10.1-3.8c1.9-1.6,2.7-1.9,3.7-1.1c1.3,1,1.2,2,0,4.2
	c-4.6,8.5-12.2,12.9-20.9,12.9C90.5,146.9,83.4,136,84.3,121.1z"/>
<path d="M141.2,139.7l-11.1-31.1c-2.6-7.1-4.6-14.1-6.8-17c-3.6-4.8-6.8-4.1-6.8-8.3c0-2.3,2.1-3.9,5.4-3.9c3.5,0,6.8,0.7,10.6,0.7
	c3.7,0,6.1-0.7,10.6-0.7c3.3,0,5.4,1.6,5.4,3.9c0,4.2-4.1,4.6-6.8,8.3c-2.2,2.9,0.3,9.9,2.6,17l3.6,11.2c1,3,1.4,4.8,2.4,4.8
	c1.1,0,1.7-1.8,2.5-3.7l11.5-28.1c0.8-2,1.1-4-0.3-6.6c-1.3-2.6-1.2-5.1,1.3-5.8l5.5-1.7c3.3-1,5-0.2,6.3,3.4l14.6,39.9
	c0.7,2,1.3,2,2,0l4.8-13.4c2.6-7.1,4-14.1,1.8-17c-3.6-4.8-6.8-4.1-6.8-8.3c0-2.3,2.1-3.9,5.4-3.9c3.5,0,6.4,0.7,8.4,0.7
	c2,0,3.9-0.7,8.4-0.7c3.3,0,5.4,1.6,5.4,3.9c0,4.2-3.2,3.5-6.8,8.3c-2.2,2.9-5.1,10.5-7.2,17l-10,31.1c-1.6,5.1-2.3,8.5-6.1,8.5
	c-3.9,0-5.1-3.5-7-8.5l-13.2-35.1c-0.7-2-1.3-1.9-2,0l-13.5,35.2c-2.2,5.9-3.7,8.3-7,8.4C145.2,148.3,143.2,145.3,141.2,139.7z"/>
</svg>
