<?xml version="1.0" standalone="no"?>
<!DOCTYPE svg PUBLIC "-//W3C//DTD SVG 20010904//EN"
 "http://www.w3.org/TR/2001/REC-SVG-20010904/DTD/svg10.dtd">
<svg version="1.0" xmlns="http://www.w3.org/2000/svg"
 width="700.000000pt" height="700.000000pt" viewBox="0 0 700.000000 700.000000"
 preserveAspectRatio="xMidYMid meet">
<metadata>
Created by potrace 1.14, written by Peter Selinger 2001-2017
</metadata>
<g transform="translate(0.000000,700.000000) scale(0.100000,-0.100000)"
fill="#000000" stroke="none">
<path d="M5305 4583 c-11 -2 -58 -16 -105 -30 -187 -55 -195 -71 -130 -248 16
-43 20 -71 15 -99 -6 -39 -354 -903 -402 -998 -29 -60 -53 -63 -77 -10 -29 64
-224 687 -240 766 -34 161 -18 201 128 313 57 45 95 103 96 146 0 41 -32 86
-77 108 -43 21 -52 22 -192 14 -187 -11 -281 -11 -461 -1 -136 8 -149 8 -192
-12 -106 -47 -104 -157 5 -240 85 -64 136 -123 172 -197 18 -38 144 -383 280
-765 291 -817 305 -849 387 -891 79 -40 159 -7 215 89 15 26 134 323 264 662
156 408 241 615 250 615 9 0 80 -176 211 -525 260 -693 283 -749 320 -794 74
-90 188 -86 242 8 14 22 83 226 156 451 367 1145 392 1205 555 1330 74 57 92
80 100 126 10 59 -15 106 -72 131 -44 19 -57 20 -178 13 -170 -10 -207 -10
-346 0 -142 10 -178 4 -224 -39 -29 -28 -35 -40 -35 -75 0 -59 21 -93 88 -144
78 -60 127 -116 142 -162 17 -51 8 -187 -19 -290 -25 -93 -208 -614 -224 -633
-5 -7 -14 -9 -18 -5 -4 4 -109 287 -234 628 -125 341 -237 643 -250 672 -31
70 -87 102 -150 86z"/>
<path d="M1005 4569 c-499 -73 -812 -415 -731 -800 21 -99 53 -157 125 -229
133 -133 308 -192 766 -260 260 -38 362 -62 442 -101 81 -39 108 -76 108 -149
0 -177 -200 -281 -514 -267 -143 6 -216 22 -316 72 -141 69 -215 150 -315 346
-39 75 -81 146 -94 158 -53 50 -139 35 -191 -33 -103 -135 -111 -500 -13 -612
57 -65 253 -144 472 -190 167 -35 470 -45 629 -20 409 65 680 256 752 532 19
74 19 213 0 287 -67 257 -302 414 -715 477 -69 11 -186 29 -260 40 -258 39
-383 83 -427 149 -29 43 -29 83 1 146 58 127 224 200 446 199 189 -1 316 -48
411 -152 46 -50 64 -84 161 -289 34 -74 92 -100 162 -73 29 11 62 58 76 110
16 61 50 383 44 420 -13 73 -41 91 -154 105 -30 3 -127 30 -215 60 -88 30
-203 61 -255 70 -102 16 -297 18 -395 4z"/>
<path d="M2931 4335 c-18 -8 -84 -64 -146 -123 -61 -59 -147 -130 -189 -157
-223 -144 -250 -169 -250 -230 0 -54 31 -87 105 -111 35 -11 75 -32 89 -46 46
-45 52 -83 60 -388 8 -324 18 -382 90 -526 99 -197 247 -294 449 -294 260 0
499 151 626 394 41 79 43 95 12 124 -35 33 -65 27 -136 -28 -80 -62 -131 -87
-207 -101 -164 -30 -276 29 -350 184 -18 40 -40 99 -49 132 -24 92 -37 267
-28 385 l8 105 75 0 c41 -1 148 -5 237 -9 191 -11 237 -2 292 53 38 38 96 139
112 193 11 40 -8 73 -46 80 -14 3 -161 1 -327 -3 -166 -5 -304 -7 -306 -4 -3
3 2 50 11 104 33 196 18 250 -78 275 -11 3 -35 -1 -54 -9z"/>
</g>
</svg>
